<svg id="Layer_1" data-name="Layer 1" xmlns="http://www.w3.org/2000/svg" viewBox="0 0 915 309.73"><defs><style>.cls-1,.cls-2,.cls-3,.cls-4{fill:none;stroke:#fff;stroke-miterlimit:10;}.cls-1{stroke-width:1.45px;}.cls-2{stroke-width:2.9px;}.cls-4{stroke-width:2px;}.cls-5{fill:#fff;}</style></defs><title>askualaLMS</title><line class="cls-1" x1="20.55" y1="111.78" x2="15.68" y2="115.62"/><line class="cls-1" x1="14.63" y1="111.78" x2="9.77" y2="115.62"/><line class="cls-1" x1="30.69" y1="111.78" x2="25.83" y2="115.62"/><line class="cls-2" x1="42.73" y1="111.78" x2="37.86" y2="115.62"/><line class="cls-3" x1="278.48" y1="113.44" x2="286.29" y2="119.28"/><line class="cls-4" x1="271.1" y1="112.35" x2="278.91" y2="118.2"/><line class="cls-4" x1="275" y1="112.35" x2="282.81" y2="118.2"/><line class="cls-4" x1="279.95" y1="110.95" x2="287.77" y2="116.79"/><line class="cls-3" x1="267.63" y1="112.84" x2="275.44" y2="118.69"/><line class="cls-3" x1="256.08" y1="112.84" x2="263.89" y2="118.69"/><line class="cls-3" x1="248.91" y1="113.44" x2="256.73" y2="119.28"/><line class="cls-3" x1="253.58" y1="112.35" x2="261.39" y2="118.2"/><line class="cls-3" x1="261.39" y1="112.35" x2="269.21" y2="118.2"/><line class="cls-3" x1="274.04" y1="112.84" x2="278.91" y2="116.67"/><line class="cls-3" x1="279.95" y1="112.84" x2="284.82" y2="116.67"/><line class="cls-4" x1="263.89" y1="112.84" x2="268.76" y2="116.67"/><line class="cls-4" x1="251.86" y1="112.84" x2="256.73" y2="116.67"/><line class="cls-4" x1="259.72" y1="112.84" x2="264.59" y2="116.67"/><line class="cls-3" x1="268.12" y1="112.84" x2="272.99" y2="116.67"/><line class="cls-3" x1="16.11" y1="112.38" x2="8.3" y2="118.23"/><line class="cls-3" x1="23.49" y1="111.3" x2="15.68" y2="117.14"/><line class="cls-3" x1="19.59" y1="111.3" x2="11.77" y2="117.14"/><line class="cls-3" x1="26.96" y1="111.78" x2="19.15" y2="117.63"/><line class="cls-3" x1="38.51" y1="111.78" x2="30.69" y2="117.63"/><line class="cls-3" x1="45.67" y1="112.38" x2="37.86" y2="118.23"/><line class="cls-3" x1="41.01" y1="111.3" x2="33.2" y2="117.14"/><line class="cls-3" x1="34.24" y1="111.67" x2="25.77" y2="117.77"/><line class="cls-3" x1="46.24" y1="113.15" x2="41.37" y2="116.99"/><line class="cls-2" x1="34.86" y1="111.78" x2="30" y2="115.62"/><line class="cls-2" x1="26.46" y1="111.78" x2="21.6" y2="115.62"/><path class="cls-5" d="M378.82,240.58v-4.26a5.74,5.74,0,0,0-3.64-5.34,6.19,6.19,0,0,0-1-.3,6.3,6.3,0,0,0-1.05.3,5.74,5.74,0,0,0-3.64,5.34v4.26l-50.14,39.26L288.45,304,240,342h33.8v28.81c13.59-.84,61.63-2.6,86.2,12.51a32.33,32.33,0,0,0,16.89,4.94h.36a30.84,30.84,0,0,0,16.45-4.68c21.71-13.67,62.43-13.79,80.83-13.06V342h33.81Zm4.58,74.81V331l-1.16-1.15-1.54-1.55V313h19.55l1.09.77v28.51h2.78l.51.51v1.95H401V344H398.8v.73h-3.61v-1.86l.6-.6h2.65v-26.9Zm-6.48-10.79h2.74v10.79h-2.74Zm27.87,17.21V304.16h2.73v17.65Zm21.35,21.7v.72L423.59,342V314.88H408.52V312.5h16.85l.77.77ZM354,315.39v29.34l-.39-.39-.09-.09-1.92-1.91V313.89l.73-.73.15-.15H373l.77.77v31l-.45-.45-2-2V315.39Zm9.69-3.38h-3l-3.59-7.83h3Zm-39.14,2.11v-8.74l2.17,2.08.43.41v3.87h9.4l2.67,2.56v.24L329,323.39h-4.71v-.09l10.89-9.18Zm-.26,10.14,2.33.08,1.76.06h16.33l2,1.89.09.09.26.25v18.13L344,341.69V326.94H327.3v17.81l-3-3Z" transform="translate(-225.5 -229.13)"/><path class="cls-5" d="M380.27,239.87v-3.55a7.18,7.18,0,0,0-5.09-6.88,6.35,6.35,0,0,0-.78-.19l-.26,0-.26,0a6.51,6.51,0,0,0-.79.19,7.17,7.17,0,0,0-5.08,6.88v3.55L235.76,343.42h36.56v28.9l1.54-.09c13.94-.86,61.26-2.52,85.36,12.29a33.73,33.73,0,0,0,17.64,5.16h.36a32.22,32.22,0,0,0,17.22-4.9c21.62-13.61,63.15-13.52,80-12.84L476,372V343.42h36.56ZM473.05,369c-18-.62-58.47-.31-80.15,13.34a29.4,29.4,0,0,1-15.68,4.45h-.36a31,31,0,0,1-16.13-4.73c-18.09-11.12-48.54-13.25-69.21-13.25-6.73,0-12.42.23-16.3.44V340.52H244.17l126.17-98.8.56-.43v-5a3.34,3.34,0,1,1,6.47,0v5L504.1,340.52H473.05Z" transform="translate(-225.5 -229.13)"/><path class="cls-5" d="M373.09,230.58h2.09a5.51,5.51,0,0,1-2.09,0Z" transform="translate(-225.5 -229.13)"/><path class="cls-5" d="M374.14,232.16l-.3-.06a3.48,3.48,0,0,0-.75-.07v-2.9h2.09V232a3.54,3.54,0,0,0-.75.07Z" transform="translate(-225.5 -229.13)"/><path class="cls-5" d="M372.83,405.34V526.09c0-.83-.5-43.29-102.72-33.18V379s1.32-.12,3.66-.26c14.92-.92,71.38-2.95,92.7,17.45A26.53,26.53,0,0,1,372.83,405.34Z" transform="translate(-225.5 -229.13)"/><path class="cls-5" d="M484,379V492.91c-102.23-10.11-102.73,32.35-102.73,33.18V405.34a26.53,26.53,0,0,1,6.36-9.11c19.14-18.31,66.6-18.55,86.9-17.74C480.36,378.72,484,379,484,379Z" transform="translate(-225.5 -229.13)"/><path class="cls-5" d="M259.15,394.11H245.64V512.32S343,480.66,370.79,526.11c0,0-14.53-43.66-111.13-23.49Z" transform="translate(-225.5 -229.13)"/><path class="cls-5" d="M239.26,411.72H225.5V529.25s98-35.06,142.32-4.42c0,0-27-33.19-128.64-5.45Z" transform="translate(-225.5 -229.13)"/><path class="cls-5" d="M494.93,394.11h13.51V512.32s-97.37-31.66-125.16,13.79c0,0,14.53-43.66,111.14-23.49Z" transform="translate(-225.5 -229.13)"/><path class="cls-5" d="M514.81,411.72h13.77V529.25s-98-35.06-142.32-4.42c0,0,27-33.19,128.64-5.45Z" transform="translate(-225.5 -229.13)"/><polygon class="cls-5" points="915 44.58 915 191.85 914.95 195.36 902.58 184.5 902.63 52.42 829.19 52.42 829.19 40.83 911.25 40.83 915 44.58"/><rect class="cls-5" x="811.03" y="0.22" width="13.29" height="85.96"/><rect class="cls-5" x="675.3" y="2.36" width="13.34" height="52.55"/><polygon class="cls-5" points="810.25 188.39 810.25 197.89 792.67 197.89 792.67 194.33 781.86 194.33 781.86 197.89 764.27 197.89 764.27 188.83 767.2 185.91 780.1 185.91 780.1 54.91 706.86 54.91 706.86 130.73 701.21 125.13 693.71 117.58 693.71 43.31 788.92 43.31 794.22 47.06 794.22 185.91 807.76 185.91 810.25 188.39"/><polygon class="cls-5" points="610.97 38.45 596.5 38.45 579.02 0.31 593.53 0.31 610.97 38.45"/><polygon class="cls-5" points="660.06 47.06 660.06 197.89 657.86 195.7 648.27 186.15 648.27 54.91 563.78 54.91 563.78 197.79 561.88 195.89 561.44 195.45 552.09 186.15 552.09 47.6 555.64 44.05 556.37 43.31 656.31 43.31 660.06 47.06"/><polygon class="cls-5" points="529.88 109.59 529.88 197.89 514.98 182.99 514.98 111.15 433.65 111.15 433.65 197.89 419.09 183.33 419.09 98.1 430.44 98.49 439.01 98.78 441.25 98.73 518.53 98.73 528.18 107.94 528.62 108.38 529.88 109.59"/><polygon class="cls-5" points="491.8 50.55 491.8 51.72 442.03 94.81 419.09 94.81 419.09 94.38 472.12 49.67 420.36 49.67 420.36 7.11 430.92 17.24 433.02 19.23 433.02 38.08 478.8 38.08 491.8 50.55"/><path class="cls-5" d="M691.8,437.58h2.59v31.21h18.05l-.48,2.4H691.8Z" transform="translate(-225.5 -229.13)"/><path class="cls-5" d="M717.91,459.47c.05,6.2,3.17,10,7.78,10s6-2.55,6.91-4.52h2.45c-1,3.17-3.55,6.77-9.46,6.77-7.3,0-10.13-6.29-10.13-12.38,0-6.87,3.41-12.77,10.42-12.77,7.39,0,9.74,6.38,9.74,10.89,0,.68,0,1.35,0,2Zm15.22-2.11c0-4.75-2.64-8.5-7.35-8.5-4.94,0-7.2,3.46-7.73,8.5Z" transform="translate(-225.5 -229.13)"/><path class="cls-5" d="M757.94,466.63a27.8,27.8,0,0,0,.34,4.56H756a15.49,15.49,0,0,1-.44-3.7c-.81,1.78-2.92,4.27-7.87,4.27-5.57,0-8-3.6-8-7.2,0-5.28,4.08-7.68,11.28-7.68h4.56v-2.45c0-2.4-.72-5.61-6.19-5.61-4.85,0-5.57,2.54-6.1,4.51h-2.4c.29-2.64,1.92-6.72,8.55-6.72,5.47,0,8.54,2.3,8.54,7.58ZM755.59,459h-4.7c-5.33,0-8.64,1.39-8.64,5.52,0,3,2.16,5.08,5.52,5.08,6.86,0,7.82-4.56,7.82-9.74Z" transform="translate(-225.5 -229.13)"/><path class="cls-5" d="M765.86,453.71c0-4-.05-5.76-.05-6.53h2.36c0,.77.09,2.31.09,5.38a9.09,9.09,0,0,1,8.36-5.95v2.59c-5,.34-8.36,3.79-8.36,9.51v12.48h-2.4Z" transform="translate(-225.5 -229.13)"/><path class="cls-5" d="M780.89,453.23c0-2.11,0-4.13,0-6.05h2.35c.1.77.14,3.89.1,4.57,1.05-2.45,3-5.14,8-5.14,4.27,0,8.06,2.4,8.06,9v15.56h-2.4V456c0-4.27-1.78-7.06-5.95-7.06-5.72,0-7.68,4.75-7.68,10v12.24h-2.4Z" transform="translate(-225.5 -229.13)"/><path class="cls-5" d="M807.19,435.81h2.4v4.65h-2.4Zm0,11.37h2.4v24h-2.4Z" transform="translate(-225.5 -229.13)"/><path class="cls-5" d="M817.46,453.23c0-2.11,0-4.13-.05-6.05h2.36c.09.77.14,3.89.09,4.57,1.06-2.45,3-5.14,8-5.14,4.27,0,8.07,2.4,8.07,9v15.56h-2.4V456c0-4.27-1.78-7.06-6-7.06-5.71,0-7.68,4.75-7.68,10v12.24h-2.4Z" transform="translate(-225.5 -229.13)"/><path class="cls-5" d="M862.1,469.55c0,7.69-3.41,11.72-10.37,11.72-6.24,0-8.83-3.51-9.4-7.15h2.44c.87,3.31,3.6,4.89,7.06,4.89,6.24,0,8-4,8-10.13v-2.49c-1.3,3.12-3.65,4.8-8,4.8-5.61,0-9.93-4.56-9.93-12,0-8.07,4.6-12.58,10.27-12.58,4.89,0,7,2.3,7.68,4.22.05-1.39.1-3.07.14-3.65h2.26c0,.87-.1,4.66-.1,7Zm-17.71-10.46c0,5.71,3,9.84,7.63,9.84,6,0,7.83-4,7.83-10.22s-1.92-9.85-7.68-9.85C846.65,448.86,844.39,453.62,844.39,459.09Z" transform="translate(-225.5 -229.13)"/><path class="cls-5" d="M912.31,455.73c0-6.58.05-12.87.19-16.23h-.14c-1.34,4.52-8.16,21.08-12.43,31.69h-2.55c-3.21-8.21-10.27-26.65-11.81-31.73h-.09c.24,3.84.33,11.66.33,17.42v14.31h-2.59V437.58h3.89c4.61,11.52,10.42,26.6,11.66,30.39h.1c.77-2.45,7.49-19.2,12.19-30.39h3.84v33.61h-2.59Z" transform="translate(-225.5 -229.13)"/><path class="cls-5" d="M939.33,466.63a27.8,27.8,0,0,0,.34,4.56h-2.3a15.15,15.15,0,0,1-.43-3.7c-.82,1.78-2.93,4.27-7.88,4.27-5.57,0-8-3.6-8-7.2,0-5.28,4.08-7.68,11.29-7.68h4.56v-2.45c0-2.4-.73-5.61-6.2-5.61-4.85,0-5.57,2.54-6.09,4.51h-2.4c.28-2.64,1.92-6.72,8.54-6.72,5.47,0,8.54,2.3,8.54,7.58ZM937,459h-4.7c-5.33,0-8.64,1.39-8.64,5.52,0,3,2.16,5.08,5.52,5.08,6.86,0,7.82-4.56,7.82-9.74Z" transform="translate(-225.5 -229.13)"/><path class="cls-5" d="M947.25,453.23c0-2.11,0-4.13,0-6.05h2.35c.09.77.14,3.89.09,4.57,1.06-2.45,3-5.14,8-5.14,4.27,0,8.07,2.4,8.07,9v15.56h-2.4V456c0-4.27-1.78-7.06-6-7.06-5.71,0-7.68,4.75-7.68,10v12.24h-2.4Z" transform="translate(-225.5 -229.13)"/><path class="cls-5" d="M989.73,466.63a27.8,27.8,0,0,0,.34,4.56h-2.3a15.49,15.49,0,0,1-.44-3.7c-.81,1.78-2.92,4.27-7.87,4.27-5.57,0-8-3.6-8-7.2,0-5.28,4.08-7.68,11.28-7.68h4.56v-2.45c0-2.4-.72-5.61-6.19-5.61-4.85,0-5.57,2.54-6.09,4.51h-2.4c.28-2.64,1.92-6.72,8.54-6.72,5.47,0,8.54,2.3,8.54,7.58ZM987.38,459h-4.7c-5.33,0-8.64,1.39-8.64,5.52,0,3,2.16,5.08,5.52,5.08,6.86,0,7.82-4.56,7.82-9.74Z" transform="translate(-225.5 -229.13)"/><path class="cls-5" d="M1016,469.55c0,7.69-3.41,11.72-10.37,11.72-6.24,0-8.83-3.51-9.41-7.15h2.45c.87,3.31,3.6,4.89,7.06,4.89,6.24,0,8-4,8-10.13v-2.49c-1.3,3.12-3.65,4.8-8,4.8-5.62,0-9.94-4.56-9.94-12,0-8.07,4.61-12.58,10.28-12.58,4.89,0,7,2.3,7.68,4.22,0-1.39.09-3.07.14-3.65h2.26c0,.87-.1,4.66-.1,7Zm-17.71-10.46c0,5.71,3,9.84,7.63,9.84,6,0,7.82-4,7.82-10.22s-1.92-9.85-7.68-9.85C1000.53,448.86,998.28,453.62,998.28,459.09Z" transform="translate(-225.5 -229.13)"/><path class="cls-5" d="M1023.86,453.38c0-2.07,0-4.32-.05-6.2h2.36c0,.82.14,2.88.09,4.28a7.51,7.51,0,0,1,7.2-4.85c3.36,0,6,1.68,7,4.75a8.16,8.16,0,0,1,7.83-4.75c3.69,0,7.53,2.11,7.53,8.78v15.8h-2.4V455.68c0-3.22-1.15-6.72-5.61-6.72-4.66,0-6.77,3.75-6.77,8.4v13.83h-2.35V455.73c0-3.51-1.06-6.77-5.48-6.77-4.65,0-6.91,4.13-6.91,9v13.2h-2.4Z" transform="translate(-225.5 -229.13)"/><path class="cls-5" d="M1064.18,459.47c0,6.2,3.17,10,7.78,10s6-2.55,6.91-4.52h2.45c-1,3.17-3.55,6.77-9.46,6.77-7.29,0-10.13-6.29-10.13-12.38,0-6.87,3.41-12.77,10.42-12.77,7.39,0,9.74,6.38,9.74,10.89,0,.68,0,1.35,0,2Zm15.22-2.11c-.05-4.75-2.64-8.5-7.35-8.5-4.94,0-7.2,3.46-7.72,8.5Z" transform="translate(-225.5 -229.13)"/><path class="cls-5" d="M1087.75,453.23c0-2.11,0-4.13,0-6.05h2.35c.1.77.15,3.89.1,4.57,1.06-2.45,3-5.14,8-5.14,4.27,0,8.06,2.4,8.06,9v15.56h-2.4V456c0-4.27-1.77-7.06-6-7.06-5.71,0-7.68,4.75-7.68,10v12.24h-2.4Z" transform="translate(-225.5 -229.13)"/><path class="cls-5" d="M1110.31,447.18h4.46V439.7h2.4v7.48h5.72v2.26h-5.72V465c0,2.69.58,4.23,2.88,4.23a9.11,9.11,0,0,0,2.5-.29v2.11a8.37,8.37,0,0,1-3,.43c-3.07,0-4.8-1.53-4.8-5.37V449.44h-4.46Z" transform="translate(-225.5 -229.13)"/><path class="cls-5" d="M819,519.76c1,4.47,4,7.11,9.5,7.11,6.15,0,8.5-3.08,8.5-6.72,0-3.8-1.68-6.15-9.07-8-7.11-1.78-10.18-4.08-10.18-8.93,0-4.42,3.22-8.55,10.42-8.55,7.39,0,10.51,4.52,10.94,8.6h-2.68c-.77-3.6-3.12-6.2-8.41-6.2-4.84,0-7.48,2.26-7.48,6s2.2,5.14,8.4,6.68c9.45,2.35,10.85,6.14,10.85,10.17,0,4.95-3.6,9.22-11.38,9.22-8.4,0-11.47-4.9-12.1-9.41Z" transform="translate(-225.5 -229.13)"/><path class="cls-5" d="M845.25,504.78c4.85,13.73,7,19.4,7.77,22h.05c1-2.93,2.88-8.5,7.54-22h2.5l-9,25.4c-2.54,7.1-4.27,8.69-8.59,8.69a15.36,15.36,0,0,1-2.21-.15v-2.4a15.15,15.15,0,0,0,2.16.15c3.46,0,4.56-1.68,6.34-6.63l-9.17-25.06Z" transform="translate(-225.5 -229.13)"/><path class="cls-5" d="M868.38,522.16c.82,3.12,3,5,6.82,5,4.27,0,6-2,6-4.65s-1.15-4.08-6.53-5.38c-6.19-1.49-7.73-3.36-7.73-6.53s2.5-6.38,7.92-6.38,8,3.31,8.4,6.72h-2.4c-.43-2-2-4.51-6.09-4.51s-5.38,2.06-5.38,4c0,2.21,1.15,3.31,5.91,4.47,6.76,1.63,8.45,3.84,8.45,7.44,0,4.36-3.56,7.05-8.6,7.05-5.47,0-8.54-2.88-9.21-7.2Z" transform="translate(-225.5 -229.13)"/><path class="cls-5" d="M886,504.78h4.46v-7.49h2.4v7.49h5.72V507h-5.72v15.6c0,2.69.58,4.23,2.89,4.23a9,9,0,0,0,2.49-.29v2.11a8.33,8.33,0,0,1-3,.43c-3.07,0-4.8-1.53-4.8-5.37V507H886Z" transform="translate(-225.5 -229.13)"/><path class="cls-5" d="M903.66,517.07c.05,6.2,3.17,10,7.78,10s6-2.55,6.91-4.52h2.45c-1,3.17-3.55,6.77-9.46,6.77-7.29,0-10.13-6.29-10.13-12.38,0-6.87,3.41-12.77,10.42-12.77,7.39,0,9.75,6.38,9.75,10.89,0,.68,0,1.35,0,2ZM918.88,515c0-4.75-2.64-8.5-7.35-8.5-4.94,0-7.2,3.46-7.72,8.5Z" transform="translate(-225.5 -229.13)"/><path class="cls-5" d="M927.23,511c0-2.07,0-4.32-.05-6.2h2.35c.05.82.15,2.88.1,4.28a7.51,7.51,0,0,1,7.2-4.85c3.36,0,6,1.68,7,4.75a8.16,8.16,0,0,1,7.83-4.75c3.69,0,7.53,2.11,7.53,8.78v15.8h-2.4V513.28c0-3.22-1.15-6.72-5.61-6.72-4.66,0-6.77,3.74-6.77,8.4v13.83H942V513.33c0-3.51-1.06-6.77-5.48-6.77-4.65,0-6.91,4.13-6.91,9v13.21h-2.4Z" transform="translate(-225.5 -229.13)"/><line class="cls-3" x1="355" y1="1.06" x2="355" y2="300.06"/></svg>