<svg id="Layer_1" data-name="Layer 1" xmlns="http://www.w3.org/2000/svg" viewBox="0 0 303.08 300.12"><defs><style>.cls-1,.cls-2,.cls-3,.cls-4,.cls-6{fill:none;}.cls-1,.cls-2,.cls-3,.cls-4{stroke:#4374ba;stroke-miterlimit:10;}.cls-1{stroke-width:1.45px;}.cls-2{stroke-width:2.9px;}.cls-4{stroke-width:2px;}.cls-5{fill:#4374ba;}</style></defs><title>AskualaFinal</title><line class="cls-1" x1="20.55" y1="111.78" x2="15.68" y2="115.62"/><line class="cls-1" x1="14.63" y1="111.78" x2="9.77" y2="115.62"/><line class="cls-1" x1="30.69" y1="111.78" x2="25.83" y2="115.62"/><line class="cls-2" x1="42.73" y1="111.78" x2="37.86" y2="115.62"/><line class="cls-3" x1="278.48" y1="113.44" x2="286.29" y2="119.28"/><line class="cls-4" x1="271.1" y1="112.35" x2="278.91" y2="118.2"/><line class="cls-4" x1="275" y1="112.35" x2="282.81" y2="118.2"/><line class="cls-4" x1="279.95" y1="110.95" x2="287.77" y2="116.79"/><line class="cls-3" x1="267.63" y1="112.84" x2="275.44" y2="118.69"/><line class="cls-3" x1="256.08" y1="112.84" x2="263.89" y2="118.69"/><line class="cls-3" x1="248.91" y1="113.44" x2="256.73" y2="119.28"/><line class="cls-3" x1="253.58" y1="112.35" x2="261.39" y2="118.2"/><line class="cls-3" x1="261.39" y1="112.35" x2="269.21" y2="118.2"/><line class="cls-3" x1="274.04" y1="112.84" x2="278.91" y2="116.67"/><line class="cls-3" x1="279.95" y1="112.84" x2="284.82" y2="116.67"/><line class="cls-4" x1="263.89" y1="112.84" x2="268.76" y2="116.67"/><line class="cls-4" x1="251.86" y1="112.84" x2="256.73" y2="116.67"/><line class="cls-4" x1="259.72" y1="112.84" x2="264.59" y2="116.67"/><line class="cls-3" x1="268.12" y1="112.84" x2="272.99" y2="116.67"/><line class="cls-3" x1="16.11" y1="112.38" x2="8.3" y2="118.23"/><line class="cls-3" x1="23.49" y1="111.3" x2="15.68" y2="117.14"/><line class="cls-3" x1="19.59" y1="111.3" x2="11.77" y2="117.14"/><line class="cls-3" x1="26.96" y1="111.78" x2="19.15" y2="117.63"/><line class="cls-3" x1="38.51" y1="111.78" x2="30.69" y2="117.63"/><line class="cls-3" x1="45.67" y1="112.38" x2="37.86" y2="118.23"/><line class="cls-3" x1="41.01" y1="111.3" x2="33.2" y2="117.14"/><line class="cls-3" x1="34.24" y1="111.67" x2="25.77" y2="117.77"/><line class="cls-3" x1="46.24" y1="113.15" x2="41.37" y2="116.99"/><line class="cls-2" x1="34.86" y1="111.78" x2="30" y2="115.62"/><line class="cls-2" x1="26.46" y1="111.78" x2="21.6" y2="115.62"/><path class="cls-5" d="M299.42,281.91v-4.26a5.74,5.74,0,0,0-3.64-5.34,6.19,6.19,0,0,0-1-.3,6.3,6.3,0,0,0-1.05.3,5.74,5.74,0,0,0-3.64,5.34v4.26L160.57,383.3h33.8v28.81c13.59-.84,61.63-2.6,86.2,12.51a32.33,32.33,0,0,0,16.89,4.94h.36a30.84,30.84,0,0,0,16.45-4.68c21.71-13.67,62.43-13.79,80.83-13.06V383.3h33.81ZM304,356.72v15.57l-1.16-1.15-1.54-1.55V354.34h19.55l1.09.77v28.51h2.78l.51.51v1.95h-3.61v-.73H319.4v.73h-3.61v-1.86l.6-.6H319v-26.9Zm-6.48-10.79h2.74v10.79h-2.74Zm27.87,17.21V345.49h2.73v17.65Zm21.35,21.7v.72l-2.54-2.23V356.21H329.12v-2.38H346l.77.77Zm-72.12-28.12v29.34l-.39-.39-.09-.09-1.92-1.91V355.22l.73-.73.15-.15h20.52l.77.77v31l-.45-.45-2-2V356.72Zm9.69-3.38h-3l-3.59-7.83h3Zm-39.14,2.11v-8.74l2.17,2.08.43.41v3.87h9.4l2.67,2.56v.24l-10.22,8.85h-4.71v-.09l10.89-9.18Zm-.26,10.14,2.33.08,1.76.06h16.33l2,1.89.09.09.26.25v18.13L264.6,383V368.27H247.9v17.81l-3-3Z" transform="translate(-146.1 -270.46)"/><path class="cls-5" d="M300.87,281.2v-3.55a7.18,7.18,0,0,0-5.09-6.88,6.35,6.35,0,0,0-.78-.19l-.26,0-.26,0a6.51,6.51,0,0,0-.79.19,7.17,7.17,0,0,0-5.08,6.88v3.55L156.36,384.75h36.56v28.9l1.54-.09c13.94-.86,61.26-2.52,85.36,12.29A33.73,33.73,0,0,0,297.46,431h.36a32.22,32.22,0,0,0,17.22-4.9c21.62-13.61,63.15-13.52,80-12.84l1.51.06V384.75h36.56Zm92.78,129.12c-18-.62-58.47-.31-80.15,13.34a29.4,29.4,0,0,1-15.68,4.45h-.36a31,31,0,0,1-16.13-4.73c-18.09-11.12-48.54-13.25-69.21-13.25-6.73,0-12.42.23-16.3.44V381.85h-31l126.17-98.8.56-.43v-5a3.34,3.34,0,1,1,6.47,0v5L424.7,381.85H393.65Z" transform="translate(-146.1 -270.46)"/><polygon class="cls-6" points="121.56 97.49 121.56 115.62 118.5 112.56 118.5 97.81 101.8 97.81 101.8 115.62 98.81 112.63 98.81 95.13 101.14 95.21 102.9 95.27 103.36 95.26 119.23 95.26 121.21 97.15 121.3 97.24 121.56 97.49"/><path class="cls-5" d="M293.69,271.91h2.09a5.1,5.1,0,0,0-1,.1A5.19,5.19,0,0,0,293.69,271.91Z" transform="translate(-146.1 -270.46)"/><path class="cls-5" d="M294.74,273.49l-.3-.06a3.48,3.48,0,0,0-.75-.07v-2.9h2.09v2.9a3.54,3.54,0,0,0-.75.07Z" transform="translate(-146.1 -270.46)"/><path class="cls-5" d="M293.43,446.67V567.42c0-.83-.5-43.29-102.72-33.18V420.37s1.31-.12,3.66-.26c14.92-.92,71.38-2.95,92.7,17.45A26.53,26.53,0,0,1,293.43,446.67Z" transform="translate(-146.1 -270.46)"/><path class="cls-5" d="M404.57,420.37V534.24c-102.23-10.11-102.73,32.35-102.73,33.18V446.67a26.53,26.53,0,0,1,6.36-9.11c19.14-18.31,66.6-18.55,86.9-17.74C401,420.05,404.57,420.37,404.57,420.37Z" transform="translate(-146.1 -270.46)"/><path class="cls-5" d="M179.75,435.43H166.24V553.65S263.61,522,291.39,567.43c0,0-14.53-43.65-111.13-23.48Z" transform="translate(-146.1 -270.46)"/><path class="cls-5" d="M159.86,453.05H146.1V570.58s98-35.06,142.32-4.42c0,0-27-33.19-128.64-5.45Z" transform="translate(-146.1 -270.46)"/><path class="cls-5" d="M415.53,435.43H429V553.65S331.67,522,303.88,567.43c0,0,14.53-43.65,111.14-23.48Z" transform="translate(-146.1 -270.46)"/><path class="cls-5" d="M435.41,453.05h13.77V570.58s-98-35.06-142.32-4.42c0,0,27-33.19,128.64-5.45Z" transform="translate(-146.1 -270.46)"/></svg>